# xmcd
#
# Track frame offsets:
# 150
# 14369
# 33841
# 57372
# 87804
# 110298
#
# Disc length: 1740 seconds
#
# Revision: 1
# Processed by: cddbd v1.5.2PL0 Copyright (c) Steve Scherf et al.
# Submitted via: CedeCatalogueitor 2.6.0.6 http://personales.ya.com/cdcatalogueitor
#
DISCID=3d06ca06
DTITLE=Vitalic - Second Lives 
DYEAR=1900
DGENRE=Country
TTITLE0=Second Lives 
TTITLE1=Second Lives  - The Bloody Beetroots Rmx
TTITLE2=Second Lives  Lifelike Rmx
TTITLE3=Second Lives  Mustang Remix
TTITLE4=Second Lives  Colonel Up Rmx
TTITLE5=Second Lives  Mustang Rmx
EXTD=
EXTT0=
EXTT1=
EXTT2=
EXTT3=
EXTT4=
EXTT5=
PLAYORDER=
